<?xml version="1.0" encoding="UTF-8"?><svg id="Layer_1" xmlns="http://www.w3.org/2000/svg" xmlns:xlink="http://www.w3.org/1999/xlink" viewBox="0 0 32.15 27.64"><defs><style>.cls-1{fill:url(#linear-gradient-2);}.cls-2{fill:url(#linear-gradient);}.cls-3{fill:#007262;}</style><linearGradient id="linear-gradient" x1="-35.93" y1="111.19" x2="-35.93" y2="88.31" gradientTransform="translate(16.45 -104.76) rotate(-23.6) scale(1.43 1.1)" gradientUnits="userSpaceOnUse"><stop offset="0" stop-color="#00a99d"/><stop offset=".17" stop-color="#00bc9a"/><stop offset=".53" stop-color="#00e097"/><stop offset=".81" stop-color="#00f694"/><stop offset="1" stop-color="#00ff94"/></linearGradient><linearGradient id="linear-gradient-2" x1="-34.89" y1="110.79" x2="-34.89" y2="87.92" xlink:href="#linear-gradient"/></defs><path class="cls-3" d="m7.65,14.74c-1.57.97-2.12,2.31-2.21,2.57-.65,1.69-.06,3.53,1.7,4.37,1.8.87,4.43.49,6.25-.97,2.07-1.66,2.56-4.3.98-5.86-1.63-1.62-4.72-1.34-6.71-.1Z"/><path class="cls-3" d="m21.26,16.79c-.97.17-1.73,1.05-1.92,1.8-.23.88.24,1.9,1.29,1.99,1.14.11,2.48-.91,2.68-1.97.21-1.1-.86-2.03-2.05-1.82Z"/><path class="cls-3" d="m27.1,10c2.32,5.77,2.39,7.66,1.25,9.56-.85,1.41-2.03,2.27-3.27,3.16-3.68,2.64-8.69,4.43-13.7,4.67,5.97.52,12.34-1.44,16.78-4.62,1.24-.89,2.42-1.75,3.27-3.16,1.14-1.9,1.07-3.8-1.25-9.56C26.58,1.08,24.66.41,23.68.19c-1.09-.25-2.2-.23-3.21-.08.04,0,.09.02.13.03.98.23,2.9.89,6.5,9.87Z"/><path class="cls-2" d="m12.37,27.51c-2.33-.31-7.86-1.06-9.07-4.67-.67-1.98.3-3.85,2.22-7.44,2.77-5.19,6.24-11.67,13.39-14.25.78-.28,2.03-.73,3.45-.93-2.58-.55-5.22.4-6.53.87C8.67,3.67,5.2,10.15,2.43,15.34.51,18.94-.46,20.8.21,22.78c1.21,3.61,6.74,4.35,9.07,4.67,1.32.18,2.67.22,4.02.16-.31-.03-.63-.06-.94-.1Z"/><path class="cls-3" d="m5.52,15.4c-1.92,3.6-2.88,5.46-2.22,7.44,1.21,3.61,6.74,4.35,9.07,4.67.31.04.62.07.94.1,5.01-.23,10.02-2.03,13.7-4.67,1.24-.89,2.42-1.75,3.27-3.17,1.14-1.91,1.06-3.81-1.27-9.61C25.39,1.15,23.47.48,22.49.25c-.04-.01-.09-.02-.13-.03-1.42.2-2.67.65-3.45.93-7.15,2.57-10.62,9.05-13.39,14.25Zm7.87,5.31c-1.82,1.46-4.44,1.84-6.25.97-1.76-.85-2.35-2.69-1.7-4.37.1-.25.64-1.59,2.21-2.57,2-1.23,5.08-1.51,6.71.1,1.57,1.56,1.09,4.2-.98,5.86Zm9.92-2.1c-.2,1.06-1.54,2.08-2.68,1.97-1.05-.1-1.52-1.11-1.29-1.99.2-.75.96-1.63,1.92-1.8,1.19-.21,2.25.73,2.05,1.82Z"/><path class="cls-1" d="m4.44,15.4c-1.92,3.6-2.88,5.46-2.22,7.44,1.21,3.61,6.74,4.35,9.07,4.67.31.04.62.07.94.1,5.01-.23,10.02-2.03,13.7-4.67,1.24-.89,2.42-1.75,3.27-3.17,1.14-1.91,1.06-3.81-1.27-9.61C24.31,1.15,22.39.48,21.41.25c-.04-.01-.09-.02-.13-.03-1.42.2-2.67.65-3.45.93C10.68,3.72,7.22,10.21,4.44,15.4Zm7.87,5.31c-1.82,1.46-4.44,1.84-6.25.97-1.76-.85-2.35-2.69-1.7-4.37.1-.25.64-1.59,2.21-2.57,2-1.23,5.08-1.51,6.71.1,1.57,1.56,1.09,4.2-.98,5.86Zm9.92-2.1c-.2,1.06-1.54,2.08-2.68,1.97-1.05-.1-1.52-1.11-1.29-1.99.2-.75.96-1.63,1.92-1.8,1.19-.21,2.25.73,2.05,1.82Z"/></svg>