<?xml version="1.0" encoding="UTF-8"?><svg id="Layer_1" xmlns="http://www.w3.org/2000/svg" xmlns:xlink="http://www.w3.org/1999/xlink" viewBox="0 0 312.28 312.28"><defs><style>.cls-1{fill:#1a2d62;}.cls-2{fill:url(#Unbenannter_Verlauf_286);}.cls-3{fill:url(#Unbenannter_Verlauf_288-2);}.cls-4{fill:url(#Unbenannter_Verlauf_304);}.cls-5{fill:url(#Unbenannter_Verlauf_286-2);}.cls-6{fill:url(#Unbenannter_Verlauf_286-5);}.cls-7{fill:url(#Unbenannter_Verlauf_410);}.cls-8{fill:url(#Unbenannter_Verlauf_288);}.cls-9{fill:url(#Unbenannter_Verlauf_286-4);}.cls-10{fill:url(#Unbenannter_Verlauf_260);}.cls-11{fill:url(#Unbenannter_Verlauf_287);}.cls-12{fill:url(#Unbenannter_Verlauf_286-3);}.cls-13{fill:url(#Unbenannter_Verlauf_289);}</style><linearGradient id="Unbenannter_Verlauf_260" x1="177.7" y1="4" x2="-37.73" y2="115.26" gradientTransform="translate(168.17 62.01) rotate(27.6)" gradientUnits="userSpaceOnUse"><stop offset=".35" stop-color="#37489c"/><stop offset=".93" stop-color="#05acab"/><stop offset="1" stop-color="#00b8ad"/></linearGradient><linearGradient id="Unbenannter_Verlauf_286" x1="246.09" y1="106.17" x2="261.23" y2="144.19" gradientTransform="translate(178.99 -139.26) rotate(63.44)" gradientUnits="userSpaceOnUse"><stop offset="0" stop-color="#37489c"/><stop offset="1" stop-color="#00b8ad"/></linearGradient><linearGradient id="Unbenannter_Verlauf_286-2" x1="332.01" y1="-61.38" x2="347.16" y2="-23.36" gradientTransform="translate(32.22 -79.07) rotate(59.86) scale(.6 .65) skewX(-7.44)" xlink:href="#Unbenannter_Verlauf_286"/><linearGradient id="Unbenannter_Verlauf_287" x1="129.64" y1="163.18" x2="156.54" y2="168.21" gradientTransform="translate(93.96 -9.99) rotate(42.9)" gradientUnits="userSpaceOnUse"><stop offset="0" stop-color="#37489c"/><stop offset="1" stop-color="#00b8ad"/></linearGradient><linearGradient id="Unbenannter_Verlauf_288" x1="134.75" y1="82.86" x2="164.45" y2="94.24" gradientTransform="translate(75.75 -41.32) rotate(59.98)" gradientUnits="userSpaceOnUse"><stop offset="0" stop-color="#37489c"/><stop offset=".21" stop-color="#246da1"/><stop offset=".42" stop-color="#148da6"/><stop offset=".63" stop-color="#09a5aa"/><stop offset=".83" stop-color="#02b3ac"/><stop offset="1" stop-color="#00b8ad"/></linearGradient><linearGradient id="Unbenannter_Verlauf_289" x1="381.49" y1="140.27" x2="388.72" y2="158.43" gradientTransform="translate(-203.61 127.4) rotate(-25.4) scale(.76 .74) skewX(2.28)" gradientUnits="userSpaceOnUse"><stop offset="0" stop-color="#37489c"/><stop offset=".81" stop-color="#00b8ad"/></linearGradient><linearGradient id="Unbenannter_Verlauf_286-3" x1="183.11" y1="33.67" x2="195.74" y2="46.87" gradientTransform="translate(-62.54 -28.09) rotate(20.65)" xlink:href="#Unbenannter_Verlauf_286"/><linearGradient id="Unbenannter_Verlauf_286-4" x1="169.95" y1="124.93" x2="179.6" y2="127.82" gradientTransform="translate(-46.2 11.74) rotate(9.02)" xlink:href="#Unbenannter_Verlauf_286"/><linearGradient id="Unbenannter_Verlauf_286-5" x1="162.34" y1="175.5" x2="174.72" y2="177.42" gradientTransform="translate(-26.02 13.2) rotate(9.02)" xlink:href="#Unbenannter_Verlauf_286"/><linearGradient id="Unbenannter_Verlauf_288-2" x1="120.47" y1="140.51" x2="135.69" y2="142.11" gradientTransform="translate(5.68 8.68) rotate(24.09)" xlink:href="#Unbenannter_Verlauf_288"/><radialGradient id="Unbenannter_Verlauf_304" cx="130.53" cy="101.24" fx="130.53" fy="101.24" r="202.08" gradientTransform="translate(-33.47 58.36) rotate(-4.47)" gradientUnits="userSpaceOnUse"><stop offset="0" stop-color="#287b83"/><stop offset=".82" stop-color="#091641" stop-opacity=".59"/><stop offset="1" stop-color="#030032" stop-opacity=".5"/></radialGradient><radialGradient id="Unbenannter_Verlauf_410" cx="225.62" cy="128.1" fx="225.62" fy="128.1" r="163.19" gradientTransform="translate(-93.79 84.24) rotate(-14.13)" gradientUnits="userSpaceOnUse"><stop offset="0" stop-color="#00b8ad" stop-opacity=".5"/><stop offset=".24" stop-color="#00b7ac" stop-opacity=".48"/><stop offset=".44" stop-color="#00b6aa" stop-opacity=".42"/><stop offset=".63" stop-color="#00b5a7" stop-opacity=".33"/><stop offset=".81" stop-color="#00b3a3" stop-opacity=".19"/><stop offset=".98" stop-color="#00b19e" stop-opacity=".02"/><stop offset="1" stop-color="#00b19e" stop-opacity="0"/></radialGradient></defs><g><g><path class="cls-10" d="m110.59,236.08c28.61,10.64,46.84,3.11,35.85-21.72-10.99-24.84-22.44-41.98-8.99-46.81,18.48-6.63,85.88,19.66,88.63-13.38,1.96-23.53-30.76-52.74-26.76-61.74,6.8-15.29,24.65,9.27,26.33-5.34.77-6.73-8.1-21.31-4.63-24.88-4.34-3.11-8.94-5.95-13.81-8.5-56.53-29.55-126.31-7.69-155.87,48.84-27.95,53.45-9.91,118.75,39.93,150.69-1.62-3.41-3.91-6.94-5.93-10.04-6.61-10.19-3.37-17.76,25.24-7.11Z"/><path class="cls-1" d="m100.18,258.41c56.53,29.55,126.31,7.69,155.87-48.84,27.01-51.66,11.06-114.39-35.03-147.37-3.47,3.58,5.4,18.15,4.63,24.88-1.67,14.61-19.53-9.94-26.33,5.34-4,8.99,28.72,38.21,26.76,61.74-2.75,33.05-70.15,6.75-88.63,13.38-13.45,4.82-2,21.97,8.99,46.81,10.99,24.84-7.24,32.36-35.85,21.72-28.61-10.64-31.85-3.08-25.24,7.11,2.02,3.11,4.3,6.63,5.93,10.04,2.87,1.84,5.83,3.57,8.91,5.18Z"/></g><ellipse class="cls-1" cx="180.12" cy="140.35" rx="16.47" ry="21.53" transform="translate(4.29 286.04) rotate(-77.57)"/><ellipse class="cls-2" cx="181.66" cy="142.22" rx="15.83" ry="20.11" transform="translate(3.67 289.01) rotate(-77.57)"/><ellipse class="cls-1" cx="160.44" cy="84.64" rx="11.13" ry="12.53" transform="translate(43.24 223.1) rotate(-77.57)"/><ellipse class="cls-5" cx="161.31" cy="85.87" rx="10.7" ry="11.7" transform="translate(42.73 224.91) rotate(-77.57)"/><ellipse class="cls-1" cx="85.7" cy="210.74" rx="10.58" ry="15.11" transform="translate(-137.74 167.96) rotate(-57.03)"/><ellipse class="cls-11" cx="86.81" cy="209.91" rx="9.42" ry="14.11" transform="translate(-136.54 168.51) rotate(-57.03)"/><ellipse class="cls-1" cx="72.24" cy="133.58" rx="21.53" ry="17.26" transform="translate(-76.02 166.46) rotate(-74.1)"/><ellipse class="cls-8" cx="74.14" cy="133.75" rx="20.11" ry="15.83" transform="translate(-74.8 168.41) rotate(-74.1)"/><ellipse class="cls-1" cx="112.01" cy="98.21" rx="7.92" ry="6.02" transform="translate(-15.46 21.12) rotate(-10.08)"/><ellipse class="cls-13" cx="112.67" cy="98.73" rx="7.4" ry="5.53" transform="translate(-29.74 52.24) rotate(-23.15)"/><ellipse class="cls-1" cx="99.92" cy="77.56" rx="14.41" ry="6.61" transform="translate(-26.39 70.85) rotate(-34.78)"/><ellipse class="cls-12" cx="101.17" cy="77.96" rx="13.46" ry="6.03" transform="translate(-26.4 71.63) rotate(-34.78)"/><ellipse class="cls-1" cx="106.16" cy="164.45" rx="5.49" ry="5.25" transform="translate(-56.1 54.97) rotate(-23.15)"/><ellipse class="cls-9" cx="107" cy="164.16" rx="4.88" ry="4.8" transform="translate(-55.92 55.28) rotate(-23.15)"/><ellipse class="cls-1" cx="113.35" cy="214.71" rx="5.86" ry="5.35" transform="translate(-75.28 61.85) rotate(-23.15)"/><ellipse class="cls-6" cx="113.53" cy="214.16" rx="5.47" ry="4.83" transform="translate(-75.05 61.87) rotate(-23.15)"/><ellipse class="cls-1" cx="64.19" cy="190.56" rx="7.03" ry="8.42" transform="translate(-104.13 80.55) rotate(-38.22)"/><ellipse class="cls-3" cx="64.99" cy="190" rx="6.2" ry="7.87" transform="translate(-103.62 80.93) rotate(-38.22)"/><path class="cls-4" d="m96.12,255.62c3.72,2.57,8.44,5.4,14.17,7.88,43.01,18.62,123.31,9.01,153.57-55.64,25.57-54.63,4.68-119.07-46.52-148.79,23.3,14.26,52.26,90.47,28.16,141.17-26.05,54.8-118.15,76.47-149.39,55.37Z"/></g><circle class="cls-7" cx="156.14" cy="156.14" r="156.1"/></svg>